# xmcd
#
# Track frame offsets:
# 150
# 13422
# 24539
# 34519
# 46441
# 58785
# 71115
# 80122
# 92415
# 103584
#
# Disc length: 1562 seconds
#
#
# Revision: 0
# Processed by: cddbd v1.5PL3 Copyright (c) Steve Scherf et al.
# Submitted via: FreeRIP 2.53 
#
DISCID=8306180a
DTITLE=Cline, Patsy - The Last Sessions
DYEAR=1900
DGENRE=
TTITLE0=Someday You'll Want Me To Want You
TTITLE1=Love Letters In The Sand
TTITLE2=Blue Moon Of Kentucky
TTITLE3=Sweet Dreams Of You
TTITLE4=Always
TTITLE5=Does Your Heart Beat For Me
TTITLE6=Bill Bailey Won't You Come Home
TTITLE7=He Called Me Baby
TTITLE8=Crazy Arms
TTITLE9=You Took Him Off My Hands
EXTD=
EXTT0=
EXTT1=
EXTT2=
EXTT3=
EXTT4=
EXTT5=
EXTT6=
EXTT7=
EXTT8=
EXTT9=
PLAYORDER=
